# xmcd
#
# Track frame offsets: 
#        150
#        21028
#        35226
#        49850
#        67658
#        90383
#        106559
#        134905
#        155962
#        173187
#        187608
#        202364
#
# Disc length: 2926 seconds
#
# Revision: 0
# Processed by: cddbd v1.5.2PL0 Copyright (c) Steve Scherf et al.
# Submitted via: ExactAudioCopyFreeDBPlugin 1.0
#
DISCID=a30b6c0c
DTITLE=Kenny Neal - Favorites
DYEAR=2011
DGENRE=Blues
TTITLE0=Let Life Flow
TTITLE1=Yack Yack Yack
TTITLE2=Don't Dip In My Business
TTITLE3=I've Been Missing You, Too
TTITLE4=Blues, Leave Me Alone
TTITLE5=Blues Stew
TTITLE6=Carrying This Torch
TTITLE7=Caught Your Back Door Man
TTITLE8=The Son I Never Knew
TTITLE9=Hoodoo Moon
TTITLE10=Starlight Diamond
TTITLE11=Neal And Prey
EXTD=
EXTT0=
EXTT1=
EXTT2=
EXTT3=
EXTT4=
EXTT5=
EXTT6=
EXTT7=
EXTT8=
EXTT9=
EXTT10=
EXTT11=
PLAYORDER=
